<svg xmlns="http://www.w3.org/2000/svg" viewBox="0 0 889.42 795.45"><defs><style>.cls-1{fill:#b2d235;}.cls-2{fill:#00a9a3;}.cls-3{fill:lime;}.cls-4{fill:#ed1c24;}.cls-5{fill:#9c7b42;}.cls-6{fill:#f59db2;}.cls-7{fill:#fff;}.cls-8{fill:#fbb57f;}.cls-9{fill:#fcec98;}.cls-10{fill:#80caa5;}.cls-11{fill:#00aeef;}.cls-12{fill:#5652a3;}.cls-13{fill:#363636;}.cls-14{fill:#aadff1;}.cls-15{fill:#f49ac1;}.cls-16{fill:#736357;}.cls-17{fill:none;stroke:#9b85be;stroke-miterlimit:10;stroke-width:24px;}</style></defs><g id="Layer_2" data-name="Layer 2"><g id="Layer_1-2" data-name="Layer 1"><path class="cls-1" d="M284,227.55c-24.58,29.74-14.52,56.05-42.5,83.85-14.08,14-32,22.62-36.31,18.69s8.44-16.65,4.43-29.8c-5.2-17-37.16-30.77-59.38-19.91-22.76,11.12-27.64,44.33-20.59,66,10.95,33.7,49,34.22,49.89,54,1.2,26.95-67.68,58.47-129.12,70.62A341.26,341.26,0,0,1,1.86,477a352.25,352.25,0,0,1,28-178.1,108.72,108.72,0,0,0,23.85-2.06c23.42-4.85,50.47-21.42,59.52-47,8.39-23.74-4.24-39.52-10.54-58.26a355.2,355.2,0,0,1,225.48-104c11.44,38.84,25.14,81.66.16,108.69C314,211.79,301.93,205.86,284,227.55Z"/><path class="cls-1" d="M304.3,791.91A355.63,355.63,0,0,1,77.7,662.5c59.18,18.25,121.66,10.71,183.09,68.06C286.21,754.28,295.47,774.19,304.3,791.91Z"/><path class="cls-1" d="M661.5,335.83c-25,15.33-24.4,63.61-28.84,63.08-4-.46-.68-38.87-8.1-40.53-7-1.56-12.59,31.79-29.41,34.85-17.26,3.15-44.53-25.93-48.17-57.32-3.5-30.13,16.88-44.26,34.78-85.11a266.86,266.86,0,0,0,18.76-64.87,354.1,354.1,0,0,1,90,142.9C680.17,328.59,669.55,330.9,661.5,335.83Z"/><path class="cls-1" d="M675.18,591.65c-3.86-35.71-16.45-55.42-4.31-105.72,8.47-35.11,23.4-62,35.87-83.29A352.42,352.42,0,0,1,675.18,591.65Z"/><path class="cls-2" d="M668.37,605.38C596.84,742,448.72,812.55,304.3,791.91c-8.83-17.72-18.09-37.63-43.51-61.35C199.36,673.21,136.88,680.75,77.7,662.5h0A355.88,355.88,0,0,1,1.86,477,341.26,341.26,0,0,0,50.42,471c61.44-12.15,130.32-43.67,129.12-70.62-.9-19.82-38.94-20.34-49.89-54-7.05-21.67-2.17-54.88,20.59-66,22.22-10.86,54.18,2.91,59.38,19.91,4,13.15-8.67,25.92-4.43,29.8s22.23-4.71,36.31-18.69c28-27.8,17.92-54.11,42.5-83.85,17.93-21.69,30-15.76,44.29-31.26,25-27,11.28-69.85-.16-108.69a355.36,355.36,0,0,1,272.39,98.33,266.86,266.86,0,0,1-18.76,64.87c-17.9,40.85-38.28,55-34.78,85.11,3.64,31.39,30.91,60.47,48.17,57.32,16.82-3.06,22.44-36.41,29.41-34.85,7.42,1.66,4.11,40.07,8.1,40.53,4.44.53,3.82-47.75,28.84-63.08,8-4.93,18.67-7.24,29.06-7a357.37,357.37,0,0,1,16.18,73.81c-12.47,21.31-27.4,48.18-35.87,83.29-12.14,50.3.45,70,4.31,105.72Q671.94,598.57,668.37,605.38Z"/><path class="cls-2" d="M53.67,296.83a108.72,108.72,0,0,1-23.85,2.06q4.91-11.2,10.67-22.22a354.12,354.12,0,0,1,62.16-85.12c6.3,18.74,18.93,34.52,10.54,58.26C104.14,275.41,77.09,292,53.67,296.83Z"/><path class="cls-3" d="M659.16,218.55l1.41,15.84A148.64,148.64,0,0,1,659.16,218.55Z"/><path class="cls-4" d="M681.16,465.71l.33,3.78Q681.27,467.62,681.16,465.71Z"/><polygon class="cls-5" points="781.9 335.55 781.51 336.06 592.01 282.25 591.95 281.61 781.9 335.55"/><polygon class="cls-5" points="781.9 335.55 781.51 336.06 592.01 282.25 591.95 281.61 781.9 335.55"/><path class="cls-5" d="M690.74,184.87l-1,.4-59,24.83L620,214.67l-32.76,13.8-1.75-19.59,16.52-7,6.85-2.89L661,177.08l.95-.4-33.4-46.91-3.11-4.37L599.19,88.56c2-3.76,4.21-7.42,6.53-11,1.37-2.09,2.8-4.15,4.27-6.16l6.58,9.25,29.65,41.63,8,11.27Z"/><polygon class="cls-5" points="781.9 335.55 781.51 336.06 592.01 282.25 591.95 281.61 781.9 335.55"/><polygon class="cls-5" points="781.9 335.55 781.51 336.06 592.01 282.25 591.95 281.61 781.9 335.55"/><path class="cls-6" d="M877.42,154.77l-232-65.89-23-32.29a145.06,145.06,0,0,1,13.08-12.1l233.93,66.44A147.59,147.59,0,0,1,877.42,154.77Z"/><path class="cls-7" d="M869.46,110.93,635.53,44.49a148,148,0,0,1,233.93,66.44Z"/><path class="cls-8" d="M872.8,195.66,683.09,141.79l-19.18-26.95-18.48-26,232,65.89a147.91,147.91,0,0,1-4.62,40.89Z"/><path class="cls-9" d="M871.81,199.32a147.81,147.81,0,0,1-14.2,33.61l-139-39.49,1-.42-36.48-51.23L872.8,195.66Q872.34,197.49,871.81,199.32Z"/><path class="cls-10" d="M857.61,232.93q-2.39,4.17-5,8.12l-9.52,12.73-10.24,13.69L659.61,218.28l59-24.84Z"/><polygon class="cls-11" points="832.82 267.47 807.17 301.77 600.64 243.11 631.12 230.27 659.61 218.28 832.82 267.47"/><polygon class="cls-12" points="807.17 301.77 781.9 335.55 591.95 281.61 588.97 248.03 600.64 243.11 807.17 301.77"/><path class="cls-13" d="M719.57,193l-1,.42-59,24.84-28.49,12-30.48,12.84L589,248l-.75-8.45-1-11.11L620,214.67l10.83-4.57,59-24.83,1-.4-36.51-51.28-8-11.27L616.57,80.69,610,71.44a147,147,0,0,1,12.46-14.85l23,32.29,18.48,26,19.18,26.95Z"/><path class="cls-14" d="M662,176.53l-1,.41-52,22.14L602.17,202l-16.5,7-1.1-11.95-.72-7.63,14-5.94,34.37-14.63.95-.41-22.37-31.19-14.32-19.95-6.32-8.79A145.79,145.79,0,0,1,597.4,91.6c.5-1,1-2,1.53-2.95l26.37,36.74,3.12,4.36Z"/><path class="cls-7" d="M604.28,160.31l-.95.4-16.74,7L582,169.69l-.51-5.63q-.16-4.76,0-9.55A144.91,144.91,0,0,1,584,131.76l9.2,12.91Z"/><path class="cls-15" d="M633.1,168.5l-1,.4-34.43,14.5-14,5.89-.84-9.4-.9-10.2,4.59-1.93,16.74-7,.95-.4-11.13-15.64L584,131.76q1.23-6.66,3.12-13.31.52-1.83,1.08-3.63,1-3.24,2.16-6.42l6.28,8.82,14.25,20Z"/><path class="cls-7" d="M781.51,336.07l-23.21,31-54.2,72.45c-.05.07-.09.14-.15.21l-2.27,3s0,0-.06.07a55.22,55.22,0,0,1-97.78-27.77.28.28,0,0,1,0-.09l-.34-3.78c0-.09,0-.17,0-.26l-8-90.12L592,282.25Z"/><polygon class="cls-16" points="781.9 335.55 781.51 336.06 592.01 282.25 591.95 281.61 781.9 335.55"/><path class="cls-17" d="M871.76,200.47a148,148,0,0,1-19.23,41.74L843,254.94l-84.76,113.3-54.2,72.46-.15.2-2.27,3-.06.08a55.22,55.22,0,0,1-97.78-27.77l0-.1-.33-3.78c0-.08,0-.17,0-.25l-8-90.13L582.85,181.05l-1.41-15.84a148,148,0,1,1,290.32,35.26Z"/></g></g></svg>