<svg xmlns="http://www.w3.org/2000/svg" viewBox="0 0 1024 1024"><defs><style>.cls-1{fill:#fff;}.cls-2{fill:#5e5ce6;}.cls-3{fill:none;stroke:#5e5ce6;stroke-miterlimit:10;stroke-width:51px;}</style></defs><g id="Layer_2" data-name="Layer 2"><g id="Layer_1-2" data-name="Layer 1"><rect class="cls-1" width="1024" height="1024" rx="235.33"/><path class="cls-2" d="M761,51.2H263C146,51.2,51.2,146,51.2,263V761C51.2,878,146,972.8,263,972.8H761C878,972.8,972.8,878,972.8,761V263C972.8,146,878,51.2,761,51.2ZM921.6,733.33c0,104-84.29,188.27-188.26,188.27H290.67c-104,0-188.27-84.29-188.27-188.27V290.66c0-104,84.29-188.26,188.27-188.26H733.34c104,0,188.26,84.28,188.26,188.26Z"/><rect class="cls-3" x="492.67" y="249.69" width="362.31" height="200.95" rx="100.48" transform="translate(-50.25 579.03) rotate(-45)"/><rect class="cls-3" x="169.01" y="573.36" width="362.31" height="200.95" rx="100.48" transform="translate(-373.91 444.97) rotate(-45)"/><rect class="cls-2" x="355.87" y="486.57" width="322.06" height="41.06" rx="19.08" transform="translate(-207.18 514.03) rotate(-45)"/></g></g></svg>